G04*
G04 #@! TF.GenerationSoftware,Altium Limited,Altium Designer,24.8.2 (39)*
G04*
G04 Layer_Physical_Order=2*
G04 Layer_Color=32768*
%FSLAX25Y25*%
%MOIN*%
G70*
G04*
G04 #@! TF.SameCoordinates,AA557069-6426-4FA0-AAFB-6E3012F5CD7C*
G04*
G04*
G04 #@! TF.FilePolarity,Negative*
G04*
G01*
G75*
%ADD86C,0.04000*%
%ADD97C,0.06131*%
%ADD98C,0.14398*%
%ADD99C,0.05816*%
%ADD100C,0.05737*%
%ADD101C,0.05343*%
%ADD102C,0.14595*%
%ADD103C,0.04800*%
%ADD104R,0.04950X0.13611*%
%ADD105C,0.03300*%
D86*
Y208661D02*
X244094D01*
X0Y0D02*
Y208661D01*
Y0D02*
X244094D01*
Y208661D01*
D97*
X67500Y61500D02*
D03*
X47500D02*
D03*
X37500D02*
D03*
X57500D02*
D03*
X17500D02*
D03*
X7500D02*
D03*
X77500D02*
D03*
X57500Y171500D02*
D03*
X37500D02*
D03*
X17500D02*
D03*
X27500D02*
D03*
X47500D02*
D03*
X67500D02*
D03*
X77500D02*
D03*
D98*
X15748Y192913D02*
D03*
X228346Y15748D02*
D03*
Y192913D02*
D03*
D99*
X107500Y101500D02*
D03*
X107440Y111500D02*
D03*
X107500Y131500D02*
D03*
X97500D02*
D03*
X107440Y121500D02*
D03*
X220000Y38000D02*
D03*
D100*
X41512Y7705D02*
D03*
X73008D02*
D03*
D101*
X199000Y142500D02*
D03*
X189000Y137500D02*
D03*
Y127500D02*
D03*
X163016Y137500D02*
D03*
X173016Y142500D02*
D03*
X163016Y147500D02*
D03*
X173016Y152500D02*
D03*
X199000Y132500D02*
D03*
Y122500D02*
D03*
X163016Y157500D02*
D03*
D102*
X224000Y162500D02*
D03*
Y117500D02*
D03*
D103*
X178500Y25000D02*
D03*
X158500D02*
D03*
X153500Y91000D02*
D03*
D104*
X213000Y65000D02*
D03*
D105*
X83130Y118630D02*
D03*
X104440Y152060D02*
D03*
X12500Y44000D02*
D03*
X9398Y35898D02*
D03*
X56500Y43000D02*
D03*
X83500Y113500D02*
D03*
X18883Y83002D02*
D03*
X100000Y197500D02*
D03*
X143500Y41100D02*
D03*
X110500Y79500D02*
D03*
X76402Y83598D02*
D03*
X71480Y83520D02*
D03*
X66480D02*
D03*
X61480D02*
D03*
X56480D02*
D03*
X27500Y163000D02*
D03*
X22500D02*
D03*
X143500Y45000D02*
D03*
X75949Y157449D02*
D03*
X130500Y98000D02*
D03*
X110000Y179500D02*
D03*
X128000Y200500D02*
D03*
X137059Y80941D02*
D03*
X103000Y38500D02*
D03*
M02*
