G04*
G04 #@! TF.GenerationSoftware,Altium Limited,Altium Designer,24.8.2 (39)*
G04*
G04 Layer_Color=8421504*
%FSLAX25Y25*%
%MOIN*%
G70*
G04*
G04 #@! TF.SameCoordinates,AA557069-6426-4FA0-AAFB-6E3012F5CD7C*
G04*
G04*
G04 #@! TF.FilePolarity,Positive*
G04*
G01*
G75*
%ADD20R,0.06127X0.05924*%
%ADD21R,0.27165X0.23425*%
%ADD22R,0.08071X0.02953*%
%ADD23R,0.07087X0.04724*%
%ADD24R,0.06102X0.02362*%
%ADD25R,0.04553X0.04182*%
%ADD26R,0.04182X0.04553*%
%ADD27R,0.05924X0.06127*%
%ADD28R,0.03543X0.05906*%
%ADD29R,0.05906X0.03543*%
%ADD30R,0.02800X0.02800*%
%ADD31R,0.04953X0.03985*%
%ADD32R,0.06313X0.07505*%
%ADD33R,0.03985X0.04953*%
%ADD34R,0.07321X0.03434*%
G04:AMPARAMS|DCode=35|XSize=73.21mil|YSize=34.34mil|CornerRadius=17.17mil|HoleSize=0mil|Usage=FLASHONLY|Rotation=0.000|XOffset=0mil|YOffset=0mil|HoleType=Round|Shape=RoundedRectangle|*
%AMROUNDEDRECTD35*
21,1,0.07321,0.00000,0,0,0.0*
21,1,0.03888,0.03434,0,0,0.0*
1,1,0.03434,0.01944,0.00000*
1,1,0.03434,-0.01944,0.00000*
1,1,0.03434,-0.01944,0.00000*
1,1,0.03434,0.01944,0.00000*
%
%ADD35ROUNDEDRECTD35*%
G04:AMPARAMS|DCode=36|XSize=73.21mil|YSize=124.89mil|CornerRadius=17.21mil|HoleSize=0mil|Usage=FLASHONLY|Rotation=0.000|XOffset=0mil|YOffset=0mil|HoleType=Round|Shape=RoundedRectangle|*
%AMROUNDEDRECTD36*
21,1,0.07321,0.09048,0,0,0.0*
21,1,0.03880,0.12489,0,0,0.0*
1,1,0.03441,0.01940,-0.04524*
1,1,0.03441,-0.01940,-0.04524*
1,1,0.03441,-0.01940,0.04524*
1,1,0.03441,0.01940,0.04524*
%
%ADD36ROUNDEDRECTD36*%
%ADD37R,0.05756X0.04757*%
%ADD38R,0.04757X0.05756*%
%ADD39R,0.04724X0.02559*%
%ADD40R,0.02756X0.06299*%
%ADD41R,0.04724X0.08661*%
%ADD42R,0.04224X0.06587*%
%ADD43R,0.06299X0.05906*%
%ADD44R,0.05709X0.04724*%
%ADD45R,0.06102X0.03937*%
G04:AMPARAMS|DCode=46|XSize=17.72mil|YSize=47.24mil|CornerRadius=1.95mil|HoleSize=0mil|Usage=FLASHONLY|Rotation=270.000|XOffset=0mil|YOffset=0mil|HoleType=Round|Shape=RoundedRectangle|*
%AMROUNDEDRECTD46*
21,1,0.01772,0.04335,0,0,270.0*
21,1,0.01382,0.04724,0,0,270.0*
1,1,0.00390,-0.02167,-0.00691*
1,1,0.00390,-0.02167,0.00691*
1,1,0.00390,0.02167,0.00691*
1,1,0.00390,0.02167,-0.00691*
%
%ADD46ROUNDEDRECTD46*%
%ADD47R,0.05733X0.05525*%
%ADD48R,0.05118X0.04331*%
%ADD49R,0.13024X0.05333*%
%ADD50R,0.04331X0.05118*%
%ADD51R,0.02362X0.03937*%
D20*
X208000Y30954D02*
D03*
Y38046D02*
D03*
X110000Y186454D02*
D03*
Y193546D02*
D03*
X113000Y24546D02*
D03*
Y17454D02*
D03*
X123000Y24546D02*
D03*
Y17454D02*
D03*
X197500Y38046D02*
D03*
Y30954D02*
D03*
D21*
X192500Y65000D02*
D03*
D22*
X164154Y56024D02*
D03*
Y60512D02*
D03*
Y69488D02*
D03*
Y73976D02*
D03*
D23*
X146453Y84976D02*
D03*
Y107024D02*
D03*
D24*
X136512Y90095D02*
D03*
Y94032D02*
D03*
Y97969D02*
D03*
Y101906D02*
D03*
X118370Y157000D02*
D03*
Y162000D02*
D03*
Y152000D02*
D03*
Y147000D02*
D03*
X139630Y162000D02*
D03*
Y157000D02*
D03*
Y152000D02*
D03*
Y147000D02*
D03*
D25*
X91200Y145500D02*
D03*
X84500D02*
D03*
D26*
X85500Y86650D02*
D03*
Y93350D02*
D03*
D27*
X7454Y51000D02*
D03*
X14546D02*
D03*
X7454Y72000D02*
D03*
X14546D02*
D03*
D28*
X6480Y88551D02*
D03*
X11480D02*
D03*
X16480D02*
D03*
X21480D02*
D03*
X26480D02*
D03*
X31480D02*
D03*
X36480D02*
D03*
X41480D02*
D03*
X46480D02*
D03*
X51480D02*
D03*
X56480D02*
D03*
X61480D02*
D03*
X66480D02*
D03*
X71480D02*
D03*
Y157449D02*
D03*
X66480D02*
D03*
X61480D02*
D03*
X56480D02*
D03*
X51480D02*
D03*
X46480D02*
D03*
X41480D02*
D03*
X36480D02*
D03*
X31480D02*
D03*
X26480D02*
D03*
X21480D02*
D03*
X16480D02*
D03*
X11480D02*
D03*
X6480D02*
D03*
D29*
X76402Y95500D02*
D03*
Y100500D02*
D03*
Y105500D02*
D03*
Y110500D02*
D03*
Y115500D02*
D03*
Y120500D02*
D03*
Y125500D02*
D03*
Y130500D02*
D03*
Y135500D02*
D03*
Y140500D02*
D03*
Y145500D02*
D03*
Y150500D02*
D03*
D30*
X21638Y111740D02*
D03*
X27543D02*
D03*
X33449D02*
D03*
X27543Y117646D02*
D03*
X33449D02*
D03*
X21638Y123551D02*
D03*
X27543D02*
D03*
X33449D02*
D03*
X21638Y117646D02*
D03*
D31*
X130941Y76500D02*
D03*
X137059D02*
D03*
X6941Y81000D02*
D03*
X13059D02*
D03*
D32*
X148407Y132500D02*
D03*
X136593D02*
D03*
X136593Y176500D02*
D03*
X148407D02*
D03*
D33*
X100000Y185941D02*
D03*
Y192059D02*
D03*
X111000Y157559D02*
D03*
Y151441D02*
D03*
X119500Y186441D02*
D03*
Y192559D02*
D03*
D34*
X112782Y53055D02*
D03*
D35*
Y44000D02*
D03*
Y34945D02*
D03*
D36*
X136218Y44000D02*
D03*
D37*
X148500Y158055D02*
D03*
Y165945D02*
D03*
Y150945D02*
D03*
Y143055D02*
D03*
X103000Y25055D02*
D03*
Y32945D02*
D03*
D38*
X117055Y169500D02*
D03*
X124945D02*
D03*
X161555Y91000D02*
D03*
X169445D02*
D03*
D39*
X21602Y11000D02*
D03*
Y16000D02*
D03*
Y21000D02*
D03*
Y26000D02*
D03*
Y31000D02*
D03*
X9398Y11000D02*
D03*
Y16000D02*
D03*
Y21000D02*
D03*
Y26000D02*
D03*
Y31000D02*
D03*
D40*
X35213Y51012D02*
D03*
X39543D02*
D03*
X43874D02*
D03*
X52535D02*
D03*
X61197D02*
D03*
X65528D02*
D03*
X69858D02*
D03*
X56866D02*
D03*
X48205D02*
D03*
D41*
X30488Y9280D02*
D03*
X91512D02*
D03*
D42*
X30488Y45894D02*
D03*
D43*
X87969Y46878D02*
D03*
D44*
X128000Y186063D02*
D03*
Y193937D02*
D03*
X118000Y71063D02*
D03*
Y78937D02*
D03*
X110500Y65126D02*
D03*
Y73000D02*
D03*
D45*
X70831Y198598D02*
D03*
X91500Y186000D02*
D03*
Y198598D02*
D03*
X70831Y186000D02*
D03*
X156169D02*
D03*
X135500Y198598D02*
D03*
Y186000D02*
D03*
X156169Y198598D02*
D03*
D46*
X137807Y61661D02*
D03*
Y64220D02*
D03*
X126193Y69339D02*
D03*
Y66780D02*
D03*
Y64220D02*
D03*
Y61661D02*
D03*
X137807Y69339D02*
D03*
Y66780D02*
D03*
D47*
X103000Y44349D02*
D03*
Y50651D02*
D03*
X132500Y25651D02*
D03*
Y19349D02*
D03*
X140500Y25651D02*
D03*
Y19349D02*
D03*
D48*
X103000Y17634D02*
D03*
Y9366D02*
D03*
D49*
X150000Y53883D02*
D03*
Y77117D02*
D03*
D50*
X176866Y91000D02*
D03*
X185134D02*
D03*
D51*
X202740Y95724D02*
D03*
X195260D02*
D03*
X199000Y86276D02*
D03*
M02*
