G04*
G04 #@! TF.GenerationSoftware,Altium Limited,Altium Designer,24.8.2 (39)*
G04*
G04 Layer_Color=16711935*
%FSLAX25Y25*%
%MOIN*%
G70*
G04*
G04 #@! TF.SameCoordinates,AA557069-6426-4FA0-AAFB-6E3012F5CD7C*
G04*
G04*
G04 #@! TF.FilePolarity,Negative*
G04*
G01*
G75*
%ADD69C,0.07099*%
G04:AMPARAMS|DCode=70|XSize=70.99mil|YSize=70.99mil|CornerRadius=19.75mil|HoleSize=0mil|Usage=FLASHONLY|Rotation=0.000|XOffset=0mil|YOffset=0mil|HoleType=Round|Shape=RoundedRectangle|*
%AMROUNDEDRECTD70*
21,1,0.07099,0.03150,0,0,0.0*
21,1,0.03150,0.07099,0,0,0.0*
1,1,0.03950,0.01575,-0.01575*
1,1,0.03950,-0.01575,-0.01575*
1,1,0.03950,-0.01575,0.01575*
1,1,0.03950,0.01575,0.01575*
%
%ADD70ROUNDEDRECTD70*%
%ADD71C,0.24422*%
%ADD72C,0.06181*%
%ADD73R,0.06181X0.06181*%
%ADD74C,0.04737*%
%ADD75C,0.06343*%
%ADD76C,0.13595*%
%ADD77C,0.06800*%
G04:AMPARAMS|DCode=78|XSize=165.48mil|YSize=78.87mil|CornerRadius=21.72mil|HoleSize=0mil|Usage=FLASHONLY|Rotation=270.000|XOffset=0mil|YOffset=0mil|HoleType=Round|Shape=RoundedRectangle|*
%AMROUNDEDRECTD78*
21,1,0.16548,0.03543,0,0,270.0*
21,1,0.12205,0.07887,0,0,270.0*
1,1,0.04343,-0.01772,-0.06102*
1,1,0.04343,-0.01772,0.06102*
1,1,0.04343,0.01772,0.06102*
1,1,0.04343,0.01772,-0.06102*
%
%ADD78ROUNDEDRECTD78*%
G04:AMPARAMS|DCode=79|XSize=165.48mil|YSize=78.87mil|CornerRadius=21.72mil|HoleSize=0mil|Usage=FLASHONLY|Rotation=0.000|XOffset=0mil|YOffset=0mil|HoleType=Round|Shape=RoundedRectangle|*
%AMROUNDEDRECTD79*
21,1,0.16548,0.03543,0,0,0.0*
21,1,0.12205,0.07887,0,0,0.0*
1,1,0.04343,0.06102,-0.01772*
1,1,0.04343,-0.06102,-0.01772*
1,1,0.04343,-0.06102,0.01772*
1,1,0.04343,0.06102,0.01772*
%
%ADD79ROUNDEDRECTD79*%
%ADD80C,0.02800*%
%ADD81C,0.03800*%
D69*
X87500Y61500D02*
D03*
X67500D02*
D03*
X47500D02*
D03*
X27500D02*
D03*
X37500D02*
D03*
X57500D02*
D03*
X17500D02*
D03*
X77500D02*
D03*
X57500Y171500D02*
D03*
X37500D02*
D03*
X17500D02*
D03*
X27500D02*
D03*
X47500D02*
D03*
X67500D02*
D03*
X77500D02*
D03*
X87500D02*
D03*
D70*
X7500Y61500D02*
D03*
Y171500D02*
D03*
D71*
X15748Y192913D02*
D03*
X228346Y15748D02*
D03*
Y192913D02*
D03*
D72*
X117500Y101500D02*
D03*
X117440Y111500D02*
D03*
X117500Y131500D02*
D03*
X107500D02*
D03*
X117440Y121500D02*
D03*
X230000Y38000D02*
D03*
D73*
X107500Y101500D02*
D03*
X107440Y111500D02*
D03*
X97500Y131500D02*
D03*
X107440Y121500D02*
D03*
X220000Y38000D02*
D03*
D74*
X41512Y7705D02*
D03*
X73008D02*
D03*
D75*
X189000Y157500D02*
D03*
X199000Y152500D02*
D03*
X189000Y147500D02*
D03*
X199000Y142500D02*
D03*
X189000Y137500D02*
D03*
Y127500D02*
D03*
X173016Y122500D02*
D03*
X163016Y127500D02*
D03*
X173016Y132500D02*
D03*
X163016Y137500D02*
D03*
X173016Y142500D02*
D03*
X163016Y147500D02*
D03*
X173016Y152500D02*
D03*
X199000Y132500D02*
D03*
Y122500D02*
D03*
X163016Y157500D02*
D03*
D76*
X224000Y162500D02*
D03*
Y117500D02*
D03*
D77*
X178500Y25000D02*
D03*
X158500D02*
D03*
X168500D02*
D03*
X153500Y91000D02*
D03*
D78*
X213000Y65000D02*
D03*
X235835D02*
D03*
D79*
X224811Y83898D02*
D03*
D80*
X85000Y80500D02*
D03*
X81000Y159000D02*
D03*
X105000Y162000D02*
D03*
X58500Y80000D02*
D03*
X96500Y86000D02*
D03*
X101852Y100000D02*
D03*
X58500Y94500D02*
D03*
X105500Y143000D02*
D03*
X71517Y122983D02*
D03*
X103500Y156000D02*
D03*
X70500Y107000D02*
D03*
X42000Y94500D02*
D03*
X70500D02*
D03*
X197500Y23500D02*
D03*
X36000Y45000D02*
D03*
X112500Y127000D02*
D03*
X155500Y147500D02*
D03*
X199000Y107500D02*
D03*
X164000Y49000D02*
D03*
X109000Y39500D02*
D03*
X160000Y83500D02*
D03*
X199000Y170000D02*
D03*
X178500Y182000D02*
D03*
X82500Y168500D02*
D03*
X104000Y170500D02*
D03*
X129000Y178000D02*
D03*
X142000Y168000D02*
D03*
X159500Y164500D02*
D03*
X145500Y184500D02*
D03*
X82000Y185000D02*
D03*
X43000Y186000D02*
D03*
X4000Y180000D02*
D03*
X29000Y204500D02*
D03*
X54000D02*
D03*
X76500D02*
D03*
X101000D02*
D03*
X139000D02*
D03*
X163000D02*
D03*
X187500D02*
D03*
X216500D02*
D03*
X240000Y180000D02*
D03*
Y154500D02*
D03*
X208000Y139500D02*
D03*
X240000Y125000D02*
D03*
X208000Y105000D02*
D03*
X240000Y94000D02*
D03*
X170500Y64500D02*
D03*
X155000D02*
D03*
X175000Y75000D02*
D03*
X193000Y88500D02*
D03*
X187000Y116500D02*
D03*
X171000Y98000D02*
D03*
X156000Y118000D02*
D03*
X140500Y141000D02*
D03*
X131000Y162500D02*
D03*
X125500Y140000D02*
D03*
X136500Y122000D02*
D03*
X128000Y108500D02*
D03*
X147000Y97000D02*
D03*
X104000Y75000D02*
D03*
X115500Y85500D02*
D03*
X133500D02*
D03*
X124500Y80000D02*
D03*
X144500Y70500D02*
D03*
X132000Y71500D02*
D03*
X139500Y57500D02*
D03*
X128000Y51000D02*
D03*
X118500Y61500D02*
D03*
X122500Y34000D02*
D03*
X145500Y33500D02*
D03*
X168500Y34000D02*
D03*
X178000Y47000D02*
D03*
X189500D02*
D03*
X205000D02*
D03*
X224500Y75000D02*
D03*
X240000Y52500D02*
D03*
Y27000D02*
D03*
X217500Y4000D02*
D03*
X208500Y23500D02*
D03*
X191000Y4000D02*
D03*
X171000Y16500D02*
D03*
X156000Y4000D02*
D03*
X136500Y11000D02*
D03*
X97000Y14500D02*
D03*
X114500Y4000D02*
D03*
X83000D02*
D03*
X48500D02*
D03*
X96000Y28000D02*
D03*
X95500Y44500D02*
D03*
X94500Y161500D02*
D03*
X88000Y154000D02*
D03*
X6500Y164000D02*
D03*
X17500Y137000D02*
D03*
Y95000D02*
D03*
X52500Y136500D02*
D03*
X30500Y127500D02*
D03*
X24500D02*
D03*
X17500Y120500D02*
D03*
Y114500D02*
D03*
X24500Y108000D02*
D03*
X30500D02*
D03*
X38000Y114500D02*
D03*
Y121000D02*
D03*
X37500Y152000D02*
D03*
X4000Y151500D02*
D03*
X70500Y152000D02*
D03*
X4000Y94500D02*
D03*
Y66500D02*
D03*
X18500Y78000D02*
D03*
X4000Y25000D02*
D03*
Y4000D02*
D03*
X16000Y15500D02*
D03*
X23500Y4000D02*
D03*
X36500Y12000D02*
D03*
X63500Y12500D02*
D03*
X75500Y28000D02*
D03*
Y45500D02*
D03*
X100500Y60000D02*
D03*
X85000Y69000D02*
D03*
X80000Y91000D02*
D03*
X74500Y80000D02*
D03*
X48500Y44500D02*
D03*
X45000Y34500D02*
D03*
D81*
X83130Y118630D02*
D03*
X104440Y152060D02*
D03*
X12500Y44000D02*
D03*
X9398Y35898D02*
D03*
X56500Y43000D02*
D03*
X83500Y113500D02*
D03*
X18883Y83002D02*
D03*
X100000Y197500D02*
D03*
X143500Y41100D02*
D03*
X110500Y79500D02*
D03*
X76402Y83598D02*
D03*
X71480Y83520D02*
D03*
X66480D02*
D03*
X61480D02*
D03*
X56480D02*
D03*
X27500Y163000D02*
D03*
X22500D02*
D03*
X143500Y45000D02*
D03*
X75949Y157449D02*
D03*
X130500Y98000D02*
D03*
X110000Y179500D02*
D03*
X128000Y200500D02*
D03*
X137059Y80941D02*
D03*
X103000Y38500D02*
D03*
M02*
