G04*
G04 #@! TF.GenerationSoftware,Altium Limited,Altium Designer,24.8.2 (39)*
G04*
G04 Layer_Physical_Order=4*
G04 Layer_Color=16711680*
%FSLAX25Y25*%
%MOIN*%
G70*
G04*
G04 #@! TF.SameCoordinates,AA557069-6426-4FA0-AAFB-6E3012F5CD7C*
G04*
G04*
G04 #@! TF.FilePolarity,Positive*
G04*
G01*
G75*
%ADD72C,0.06181*%
%ADD73R,0.06181X0.06181*%
%ADD82C,0.03937*%
%ADD83C,0.01500*%
%ADD87C,0.06299*%
G04:AMPARAMS|DCode=88|XSize=62.99mil|YSize=62.99mil|CornerRadius=15.75mil|HoleSize=0mil|Usage=FLASHONLY|Rotation=0.000|XOffset=0mil|YOffset=0mil|HoleType=Round|Shape=RoundedRectangle|*
%AMROUNDEDRECTD88*
21,1,0.06299,0.03150,0,0,0.0*
21,1,0.03150,0.06299,0,0,0.0*
1,1,0.03150,0.01575,-0.01575*
1,1,0.03150,-0.01575,-0.01575*
1,1,0.03150,-0.01575,0.01575*
1,1,0.03150,0.01575,0.01575*
%
%ADD88ROUNDEDRECTD88*%
%ADD89C,0.23622*%
%ADD90C,0.05543*%
%ADD91C,0.12795*%
%ADD92C,0.06000*%
G04:AMPARAMS|DCode=93|XSize=157.48mil|YSize=70.87mil|CornerRadius=17.72mil|HoleSize=0mil|Usage=FLASHONLY|Rotation=270.000|XOffset=0mil|YOffset=0mil|HoleType=Round|Shape=RoundedRectangle|*
%AMROUNDEDRECTD93*
21,1,0.15748,0.03543,0,0,270.0*
21,1,0.12205,0.07087,0,0,270.0*
1,1,0.03543,-0.01772,-0.06102*
1,1,0.03543,-0.01772,0.06102*
1,1,0.03543,0.01772,0.06102*
1,1,0.03543,0.01772,-0.06102*
%
%ADD93ROUNDEDRECTD93*%
G04:AMPARAMS|DCode=94|XSize=157.48mil|YSize=70.87mil|CornerRadius=17.72mil|HoleSize=0mil|Usage=FLASHONLY|Rotation=0.000|XOffset=0mil|YOffset=0mil|HoleType=Round|Shape=RoundedRectangle|*
%AMROUNDEDRECTD94*
21,1,0.15748,0.03543,0,0,0.0*
21,1,0.12205,0.07087,0,0,0.0*
1,1,0.03543,0.06102,-0.01772*
1,1,0.03543,-0.06102,-0.01772*
1,1,0.03543,-0.06102,0.01772*
1,1,0.03543,0.06102,0.01772*
%
%ADD94ROUNDEDRECTD94*%
%ADD95C,0.02000*%
%ADD96C,0.03000*%
G36*
X243075Y1020D02*
X1020D01*
Y207642D01*
X243075D01*
Y1020D01*
D02*
G37*
%LPC*%
G36*
X128000Y202947D02*
X127064Y202761D01*
X126270Y202230D01*
X125739Y201436D01*
X125553Y200500D01*
X125739Y199564D01*
X126270Y198770D01*
X127064Y198239D01*
X128000Y198053D01*
X128936Y198239D01*
X129730Y198770D01*
X130261Y199564D01*
X130447Y200500D01*
X130261Y201436D01*
X129730Y202230D01*
X128936Y202761D01*
X128000Y202947D01*
D02*
G37*
G36*
X228346Y205664D02*
X226352Y205507D01*
X224406Y205040D01*
X222558Y204274D01*
X220852Y203229D01*
X219331Y201929D01*
X218031Y200408D01*
X216986Y198702D01*
X216220Y196853D01*
X215753Y194908D01*
X215596Y192913D01*
X215753Y190919D01*
X216220Y188973D01*
X216986Y187125D01*
X218031Y185419D01*
X219331Y183898D01*
X220852Y182598D01*
X222558Y181553D01*
X224406Y180787D01*
X226352Y180320D01*
X228346Y180163D01*
X230341Y180320D01*
X232287Y180787D01*
X234135Y181553D01*
X235841Y182598D01*
X237362Y183898D01*
X238662Y185419D01*
X239707Y187125D01*
X240473Y188973D01*
X240940Y190919D01*
X241097Y192913D01*
X240940Y194908D01*
X240473Y196853D01*
X239707Y198702D01*
X238662Y200408D01*
X237362Y201929D01*
X235841Y203229D01*
X234135Y204274D01*
X232287Y205040D01*
X230341Y205507D01*
X228346Y205664D01*
D02*
G37*
G36*
X15748D02*
X13753Y205507D01*
X11808Y205040D01*
X9960Y204274D01*
X8254Y203229D01*
X6732Y201929D01*
X5433Y200408D01*
X4387Y198702D01*
X3622Y196853D01*
X3155Y194908D01*
X2998Y192913D01*
X3155Y190919D01*
X3622Y188973D01*
X4387Y187125D01*
X5433Y185419D01*
X6732Y183898D01*
X8254Y182598D01*
X9960Y181553D01*
X11808Y180787D01*
X13753Y180320D01*
X15748Y180163D01*
X17743Y180320D01*
X19688Y180787D01*
X21536Y181553D01*
X23243Y182598D01*
X24764Y183898D01*
X26063Y185419D01*
X27109Y187125D01*
X27874Y188973D01*
X28341Y190919D01*
X28498Y192913D01*
X28341Y194908D01*
X27874Y196853D01*
X27109Y198702D01*
X26063Y200408D01*
X24764Y201929D01*
X23243Y203229D01*
X21536Y204274D01*
X19688Y205040D01*
X17743Y205507D01*
X15748Y205664D01*
D02*
G37*
G36*
X88000Y175620D02*
Y172000D01*
X91620D01*
X91543Y172583D01*
X91125Y173593D01*
X90460Y174460D01*
X89593Y175125D01*
X88583Y175543D01*
X88000Y175620D01*
D02*
G37*
G36*
X87000D02*
X86417Y175543D01*
X85407Y175125D01*
X84540Y174460D01*
X83875Y173593D01*
X83457Y172583D01*
X83380Y172000D01*
X87000D01*
Y175620D01*
D02*
G37*
G36*
X9075Y175672D02*
X8000D01*
Y172000D01*
X11672D01*
Y173075D01*
X11583Y173747D01*
X11324Y174373D01*
X10911Y174911D01*
X10373Y175324D01*
X9747Y175583D01*
X9075Y175672D01*
D02*
G37*
G36*
X7000D02*
X5925D01*
X5253Y175583D01*
X4627Y175324D01*
X4089Y174911D01*
X3676Y174373D01*
X3417Y173747D01*
X3328Y173075D01*
Y172000D01*
X7000D01*
Y175672D01*
D02*
G37*
G36*
X77500Y175584D02*
X76443Y175445D01*
X75458Y175037D01*
X74612Y174388D01*
X73963Y173542D01*
X73555Y172557D01*
X73415Y171500D01*
X73555Y170443D01*
X73704Y170083D01*
X68303Y164682D01*
X64476D01*
X64061Y165682D01*
X66083Y167704D01*
X66443Y167555D01*
X67500Y167415D01*
X68557Y167555D01*
X69542Y167963D01*
X70388Y168612D01*
X71037Y169458D01*
X71445Y170443D01*
X71584Y171500D01*
X71445Y172557D01*
X71037Y173542D01*
X70388Y174388D01*
X69542Y175037D01*
X68557Y175445D01*
X67500Y175584D01*
X66443Y175445D01*
X65458Y175037D01*
X64612Y174388D01*
X63963Y173542D01*
X63555Y172557D01*
X63415Y171500D01*
X63555Y170443D01*
X63704Y170083D01*
X62218Y168597D01*
X61690Y168666D01*
X61469Y168934D01*
X61154Y169739D01*
X61445Y170443D01*
X61585Y171500D01*
X61445Y172557D01*
X61037Y173542D01*
X60388Y174388D01*
X59542Y175037D01*
X58557Y175445D01*
X57500Y175584D01*
X56443Y175445D01*
X55458Y175037D01*
X54612Y174388D01*
X53963Y173542D01*
X53555Y172557D01*
X53416Y171500D01*
X53555Y170443D01*
X53963Y169458D01*
X54174Y169182D01*
X53681Y168182D01*
X51319D01*
X50826Y169182D01*
X51037Y169458D01*
X51445Y170443D01*
X51585Y171500D01*
X51445Y172557D01*
X51037Y173542D01*
X50388Y174388D01*
X49542Y175037D01*
X48557Y175445D01*
X47500Y175584D01*
X46443Y175445D01*
X45458Y175037D01*
X44612Y174388D01*
X43963Y173542D01*
X43555Y172557D01*
X43415Y171500D01*
X43555Y170443D01*
X43963Y169458D01*
X44174Y169182D01*
X43681Y168182D01*
X41319D01*
X40826Y169182D01*
X41037Y169458D01*
X41445Y170443D01*
X41585Y171500D01*
X41445Y172557D01*
X41037Y173542D01*
X40388Y174388D01*
X39542Y175037D01*
X38557Y175445D01*
X37500Y175584D01*
X36443Y175445D01*
X35458Y175037D01*
X34612Y174388D01*
X33963Y173542D01*
X33555Y172557D01*
X33415Y171500D01*
X33555Y170443D01*
X33963Y169458D01*
X34174Y169182D01*
X33681Y168182D01*
X31319D01*
X30826Y169182D01*
X31037Y169458D01*
X31445Y170443D01*
X31585Y171500D01*
X31445Y172557D01*
X31037Y173542D01*
X30388Y174388D01*
X29542Y175037D01*
X28557Y175445D01*
X27500Y175584D01*
X26443Y175445D01*
X25458Y175037D01*
X24612Y174388D01*
X23963Y173542D01*
X23555Y172557D01*
X23415Y171500D01*
X23555Y170443D01*
X23963Y169458D01*
X24537Y168710D01*
X24608Y168492D01*
X24533Y167412D01*
X22557Y165436D01*
X22500Y165447D01*
X21564Y165261D01*
X20770Y164730D01*
X20239Y163936D01*
X20053Y163000D01*
X20239Y162064D01*
X20770Y161270D01*
X21564Y160739D01*
X22500Y160553D01*
X23436Y160739D01*
X24230Y161270D01*
X24404Y161529D01*
X25596D01*
X25770Y161270D01*
X26564Y160739D01*
X27500Y160553D01*
X28436Y160739D01*
X29230Y161270D01*
X29262Y161318D01*
X69000D01*
X69644Y161446D01*
X70190Y161810D01*
X76083Y167704D01*
X76443Y167555D01*
X77500Y167415D01*
X78557Y167555D01*
X79542Y167963D01*
X80388Y168612D01*
X81037Y169458D01*
X81445Y170443D01*
X81585Y171500D01*
X81445Y172557D01*
X81037Y173542D01*
X80388Y174388D01*
X79542Y175037D01*
X78557Y175445D01*
X77500Y175584D01*
D02*
G37*
G36*
X17500D02*
X16443Y175445D01*
X15458Y175037D01*
X14612Y174388D01*
X13963Y173542D01*
X13555Y172557D01*
X13416Y171500D01*
X13555Y170443D01*
X13963Y169458D01*
X14612Y168612D01*
X15458Y167963D01*
X16443Y167555D01*
X17500Y167415D01*
X18557Y167555D01*
X19542Y167963D01*
X20388Y168612D01*
X21037Y169458D01*
X21445Y170443D01*
X21585Y171500D01*
X21445Y172557D01*
X21037Y173542D01*
X20388Y174388D01*
X19542Y175037D01*
X18557Y175445D01*
X17500Y175584D01*
D02*
G37*
G36*
X91620Y171000D02*
X88000D01*
Y167380D01*
X88583Y167457D01*
X89593Y167875D01*
X90460Y168541D01*
X91125Y169407D01*
X91543Y170417D01*
X91620Y171000D01*
D02*
G37*
G36*
X87000D02*
X83380D01*
X83457Y170417D01*
X83875Y169407D01*
X84540Y168541D01*
X85407Y167875D01*
X86417Y167457D01*
X87000Y167380D01*
Y171000D01*
D02*
G37*
G36*
X11672D02*
X8000D01*
Y167328D01*
X9075D01*
X9747Y167417D01*
X10373Y167676D01*
X10911Y168089D01*
X11324Y168627D01*
X11583Y169253D01*
X11672Y169925D01*
Y171000D01*
D02*
G37*
G36*
X7000D02*
X3328D01*
Y169925D01*
X3417Y169253D01*
X3676Y168627D01*
X4089Y168089D01*
X4627Y167676D01*
X5253Y167417D01*
X5925Y167328D01*
X7000D01*
Y171000D01*
D02*
G37*
G36*
X189500Y161238D02*
Y158000D01*
X192738D01*
X192675Y158485D01*
X192295Y159402D01*
X191690Y160190D01*
X190902Y160794D01*
X189985Y161175D01*
X189500Y161238D01*
D02*
G37*
G36*
X188500D02*
X188015Y161175D01*
X187098Y160794D01*
X186310Y160190D01*
X185705Y159402D01*
X185325Y158485D01*
X185262Y158000D01*
X188500D01*
Y161238D01*
D02*
G37*
G36*
X100000Y199947D02*
X99064Y199761D01*
X98270Y199230D01*
X97739Y198436D01*
X97553Y197500D01*
X97739Y196564D01*
X98270Y195770D01*
X98281Y195762D01*
Y172660D01*
X82803Y157182D01*
X79356D01*
X78396Y157449D01*
X78210Y158385D01*
X77679Y159179D01*
X76885Y159710D01*
X75949Y159896D01*
X75012Y159710D01*
X74218Y159179D01*
X73688Y158385D01*
X73502Y157449D01*
X73688Y156512D01*
X74218Y155719D01*
X75012Y155188D01*
X75949Y155002D01*
X76005Y155013D01*
X76708Y154310D01*
X77254Y153946D01*
X77898Y153818D01*
X83500D01*
X84144Y153946D01*
X84690Y154310D01*
X101153Y170773D01*
X101153Y170773D01*
X101517Y171319D01*
X101645Y171963D01*
X101645Y171963D01*
Y195713D01*
X101730Y195770D01*
X102261Y196564D01*
X102447Y197500D01*
X102261Y198436D01*
X101730Y199230D01*
X100936Y199761D01*
X100000Y199947D01*
D02*
G37*
G36*
X224000Y169833D02*
X222569Y169692D01*
X221194Y169275D01*
X219926Y168597D01*
X218815Y167685D01*
X217903Y166574D01*
X217225Y165306D01*
X216808Y163931D01*
X216667Y162500D01*
X216808Y161069D01*
X217225Y159694D01*
X217903Y158426D01*
X218815Y157315D01*
X219926Y156403D01*
X221194Y155725D01*
X222569Y155308D01*
X224000Y155167D01*
X225431Y155308D01*
X226806Y155725D01*
X228074Y156403D01*
X229185Y157315D01*
X230097Y158426D01*
X230775Y159694D01*
X231192Y161069D01*
X231333Y162500D01*
X231192Y163931D01*
X230775Y165306D01*
X230097Y166574D01*
X229185Y167685D01*
X228074Y168597D01*
X226806Y169275D01*
X225431Y169692D01*
X224000Y169833D01*
D02*
G37*
G36*
X163016Y161203D02*
X162057Y161077D01*
X161164Y160707D01*
X160397Y160119D01*
X159809Y159352D01*
X159439Y158458D01*
X159312Y157500D01*
X159439Y156542D01*
X159809Y155648D01*
X160397Y154881D01*
X161164Y154293D01*
X162057Y153923D01*
X163016Y153797D01*
X163974Y153923D01*
X164867Y154293D01*
X165634Y154881D01*
X166223Y155648D01*
X166593Y156542D01*
X166719Y157500D01*
X166593Y158458D01*
X166223Y159352D01*
X165634Y160119D01*
X164867Y160707D01*
X163974Y161077D01*
X163016Y161203D01*
D02*
G37*
G36*
X192738Y157000D02*
X189500D01*
Y153762D01*
X189985Y153825D01*
X190902Y154206D01*
X191690Y154810D01*
X192295Y155598D01*
X192675Y156515D01*
X192738Y157000D01*
D02*
G37*
G36*
X188500D02*
X185262D01*
X185325Y156515D01*
X185705Y155598D01*
X186310Y154810D01*
X187098Y154206D01*
X188015Y153825D01*
X188500Y153762D01*
Y157000D01*
D02*
G37*
G36*
X199500Y156238D02*
Y153000D01*
X202738D01*
X202675Y153485D01*
X202294Y154402D01*
X201690Y155190D01*
X200902Y155795D01*
X199985Y156175D01*
X199500Y156238D01*
D02*
G37*
G36*
X198500D02*
X198015Y156175D01*
X197098Y155795D01*
X196310Y155190D01*
X195705Y154402D01*
X195325Y153485D01*
X195262Y153000D01*
X198500D01*
Y156238D01*
D02*
G37*
G36*
X110000Y181947D02*
X109064Y181761D01*
X108270Y181230D01*
X107739Y180436D01*
X107553Y179500D01*
X107739Y178564D01*
X108270Y177770D01*
X108318Y177738D01*
Y153071D01*
X107730Y152597D01*
X106711Y152944D01*
X106701Y152996D01*
X106170Y153790D01*
X105377Y154321D01*
X104440Y154507D01*
X103504Y154321D01*
X102710Y153790D01*
X102179Y152996D01*
X101993Y152060D01*
X102179Y151123D01*
X102710Y150329D01*
X103504Y149799D01*
X103922Y149716D01*
X104255Y148634D01*
X40305Y84684D01*
X20645D01*
X20613Y84732D01*
X19819Y85262D01*
X18883Y85449D01*
X17946Y85262D01*
X17152Y84732D01*
X16622Y83938D01*
X16436Y83002D01*
X16622Y82065D01*
X17152Y81271D01*
X17946Y80741D01*
X18883Y80555D01*
X19819Y80741D01*
X20613Y81271D01*
X20645Y81319D01*
X41002D01*
X41646Y81447D01*
X42191Y81812D01*
X79825Y119446D01*
X80747Y118954D01*
X80682Y118630D01*
X80869Y117693D01*
X81399Y116899D01*
X81933Y116542D01*
X82060Y115677D01*
X82004Y115387D01*
X81770Y115230D01*
X81239Y114436D01*
X81053Y113500D01*
X81239Y112564D01*
X81770Y111770D01*
X82564Y111239D01*
X83500Y111053D01*
X83557Y111064D01*
X87818Y106803D01*
Y79000D01*
X87946Y78356D01*
X88310Y77810D01*
X126210Y39910D01*
X126756Y39546D01*
X127400Y39418D01*
X127400Y39418D01*
X141738D01*
X141770Y39370D01*
X142564Y38839D01*
X143500Y38653D01*
X144436Y38839D01*
X145230Y39370D01*
X145761Y40164D01*
X145947Y41100D01*
X145761Y42036D01*
X145583Y42303D01*
X145310Y43050D01*
X145583Y43797D01*
X145761Y44064D01*
X145947Y45000D01*
X145761Y45936D01*
X145230Y46730D01*
X144436Y47261D01*
X143500Y47447D01*
X142564Y47261D01*
X141770Y46730D01*
X141738Y46682D01*
X128197D01*
X94182Y80697D01*
Y109259D01*
X94182Y109259D01*
X94054Y109903D01*
X93690Y110449D01*
X93690Y110449D01*
X85565Y118573D01*
X85576Y118630D01*
X85390Y119566D01*
X84860Y120360D01*
X84066Y120890D01*
X83130Y121077D01*
X82806Y121012D01*
X82313Y121934D01*
X92586Y132206D01*
X93510Y131824D01*
Y127509D01*
X101490D01*
Y135491D01*
X97176D01*
X96794Y136414D01*
X111190Y150810D01*
X111554Y151356D01*
X111682Y152000D01*
Y177738D01*
X111730Y177770D01*
X112261Y178564D01*
X112447Y179500D01*
X112261Y180436D01*
X111730Y181230D01*
X110936Y181761D01*
X110000Y181947D01*
D02*
G37*
G36*
X173016Y156203D02*
X172057Y156077D01*
X171164Y155707D01*
X170397Y155119D01*
X169809Y154352D01*
X169439Y153458D01*
X169312Y152500D01*
X169439Y151541D01*
X169809Y150648D01*
X170397Y149881D01*
X171164Y149293D01*
X172057Y148923D01*
X173016Y148797D01*
X173974Y148923D01*
X174867Y149293D01*
X175634Y149881D01*
X176223Y150648D01*
X176593Y151541D01*
X176719Y152500D01*
X176593Y153458D01*
X176223Y154352D01*
X175634Y155119D01*
X174867Y155707D01*
X173974Y156077D01*
X173016Y156203D01*
D02*
G37*
G36*
X202738Y152000D02*
X199500D01*
Y148762D01*
X199985Y148825D01*
X200902Y149206D01*
X201690Y149810D01*
X202294Y150598D01*
X202675Y151515D01*
X202738Y152000D01*
D02*
G37*
G36*
X198500D02*
X195262D01*
X195325Y151515D01*
X195705Y150598D01*
X196310Y149810D01*
X197098Y149206D01*
X198015Y148825D01*
X198500Y148762D01*
Y152000D01*
D02*
G37*
G36*
X189500Y151238D02*
Y148000D01*
X192738D01*
X192675Y148485D01*
X192295Y149402D01*
X191690Y150190D01*
X190902Y150794D01*
X189985Y151175D01*
X189500Y151238D01*
D02*
G37*
G36*
X188500D02*
X188015Y151175D01*
X187098Y150794D01*
X186310Y150190D01*
X185705Y149402D01*
X185325Y148485D01*
X185262Y148000D01*
X188500D01*
Y151238D01*
D02*
G37*
G36*
X163016Y151203D02*
X162057Y151077D01*
X161164Y150707D01*
X160397Y150119D01*
X159809Y149352D01*
X159439Y148459D01*
X159312Y147500D01*
X159439Y146542D01*
X159809Y145648D01*
X160397Y144881D01*
X161164Y144293D01*
X162057Y143923D01*
X163016Y143797D01*
X163974Y143923D01*
X164867Y144293D01*
X165634Y144881D01*
X166223Y145648D01*
X166593Y146542D01*
X166719Y147500D01*
X166593Y148459D01*
X166223Y149352D01*
X165634Y150119D01*
X164867Y150707D01*
X163974Y151077D01*
X163016Y151203D01*
D02*
G37*
G36*
X192738Y147000D02*
X189500D01*
Y143762D01*
X189985Y143825D01*
X190902Y144205D01*
X191690Y144810D01*
X192295Y145598D01*
X192675Y146515D01*
X192738Y147000D01*
D02*
G37*
G36*
X188500D02*
X185262D01*
X185325Y146515D01*
X185705Y145598D01*
X186310Y144810D01*
X187098Y144205D01*
X188015Y143825D01*
X188500Y143762D01*
Y147000D01*
D02*
G37*
G36*
X199000Y146203D02*
X198041Y146077D01*
X197148Y145707D01*
X196381Y145119D01*
X195793Y144352D01*
X195423Y143458D01*
X195297Y142500D01*
X195423Y141542D01*
X195793Y140648D01*
X196381Y139881D01*
X197148Y139293D01*
X198041Y138923D01*
X199000Y138797D01*
X199959Y138923D01*
X200852Y139293D01*
X201619Y139881D01*
X202207Y140648D01*
X202577Y141542D01*
X202703Y142500D01*
X202577Y143458D01*
X202207Y144352D01*
X201619Y145119D01*
X200852Y145707D01*
X199959Y146077D01*
X199000Y146203D01*
D02*
G37*
G36*
X173016D02*
X172057Y146077D01*
X171164Y145707D01*
X170397Y145119D01*
X169809Y144352D01*
X169439Y143458D01*
X169312Y142500D01*
X169439Y141542D01*
X169809Y140648D01*
X170397Y139881D01*
X171164Y139293D01*
X172057Y138923D01*
X173016Y138797D01*
X173974Y138923D01*
X174867Y139293D01*
X175634Y139881D01*
X176223Y140648D01*
X176593Y141542D01*
X176719Y142500D01*
X176593Y143458D01*
X176223Y144352D01*
X175634Y145119D01*
X174867Y145707D01*
X173974Y146077D01*
X173016Y146203D01*
D02*
G37*
G36*
X189000Y141203D02*
X188041Y141077D01*
X187148Y140707D01*
X186381Y140119D01*
X185793Y139352D01*
X185423Y138459D01*
X185297Y137500D01*
X185423Y136541D01*
X185793Y135648D01*
X186381Y134881D01*
X187148Y134293D01*
X188041Y133923D01*
X189000Y133797D01*
X189959Y133923D01*
X190852Y134293D01*
X191619Y134881D01*
X192207Y135648D01*
X192577Y136541D01*
X192703Y137500D01*
X192577Y138459D01*
X192207Y139352D01*
X191619Y140119D01*
X190852Y140707D01*
X189959Y141077D01*
X189000Y141203D01*
D02*
G37*
G36*
X163016D02*
X162057Y141077D01*
X161164Y140707D01*
X160397Y140119D01*
X159809Y139352D01*
X159439Y138459D01*
X159312Y137500D01*
X159439Y136541D01*
X159809Y135648D01*
X160397Y134881D01*
X161164Y134293D01*
X162057Y133923D01*
X163016Y133797D01*
X163974Y133923D01*
X164867Y134293D01*
X165634Y134881D01*
X166223Y135648D01*
X166593Y136541D01*
X166719Y137500D01*
X166593Y138459D01*
X166223Y139352D01*
X165634Y140119D01*
X164867Y140707D01*
X163974Y141077D01*
X163016Y141203D01*
D02*
G37*
G36*
X173516Y136238D02*
Y133000D01*
X176754D01*
X176690Y133485D01*
X176310Y134402D01*
X175706Y135190D01*
X174918Y135794D01*
X174000Y136175D01*
X173516Y136238D01*
D02*
G37*
G36*
X172516D02*
X172031Y136175D01*
X171114Y135794D01*
X170326Y135190D01*
X169721Y134402D01*
X169341Y133485D01*
X169277Y133000D01*
X172516D01*
Y136238D01*
D02*
G37*
G36*
X118000Y135560D02*
Y132000D01*
X121560D01*
X121485Y132568D01*
X121073Y133563D01*
X120417Y134417D01*
X119563Y135073D01*
X118568Y135485D01*
X118000Y135560D01*
D02*
G37*
G36*
X117000D02*
X116432Y135485D01*
X115437Y135073D01*
X114583Y134417D01*
X113927Y133563D01*
X113515Y132568D01*
X113440Y132000D01*
X117000D01*
Y135560D01*
D02*
G37*
G36*
X199000Y136203D02*
X198041Y136077D01*
X197148Y135707D01*
X196381Y135119D01*
X195793Y134352D01*
X195423Y133458D01*
X195297Y132500D01*
X195423Y131542D01*
X195793Y130648D01*
X196381Y129881D01*
X197148Y129293D01*
X198041Y128923D01*
X199000Y128797D01*
X199959Y128923D01*
X200852Y129293D01*
X201619Y129881D01*
X202207Y130648D01*
X202577Y131542D01*
X202703Y132500D01*
X202577Y133458D01*
X202207Y134352D01*
X201619Y135119D01*
X200852Y135707D01*
X199959Y136077D01*
X199000Y136203D01*
D02*
G37*
G36*
X176754Y132000D02*
X173516D01*
Y128762D01*
X174000Y128825D01*
X174918Y129206D01*
X175706Y129810D01*
X176310Y130598D01*
X176690Y131515D01*
X176754Y132000D01*
D02*
G37*
G36*
X172516D02*
X169277D01*
X169341Y131515D01*
X169721Y130598D01*
X170326Y129810D01*
X171114Y129206D01*
X172031Y128825D01*
X172516Y128762D01*
Y132000D01*
D02*
G37*
G36*
X163516Y131238D02*
Y128000D01*
X166754D01*
X166690Y128485D01*
X166310Y129402D01*
X165706Y130190D01*
X164918Y130795D01*
X164000Y131175D01*
X163516Y131238D01*
D02*
G37*
G36*
X162516D02*
X162031Y131175D01*
X161114Y130795D01*
X160326Y130190D01*
X159721Y129402D01*
X159341Y128485D01*
X159277Y128000D01*
X162516D01*
Y131238D01*
D02*
G37*
G36*
X107500Y135525D02*
X106458Y135388D01*
X105488Y134986D01*
X104654Y134346D01*
X104014Y133512D01*
X103612Y132542D01*
X103475Y131500D01*
X103612Y130458D01*
X104014Y129488D01*
X104654Y128654D01*
X105488Y128014D01*
X106458Y127612D01*
X107500Y127475D01*
X108542Y127612D01*
X109512Y128014D01*
X110346Y128654D01*
X110986Y129488D01*
X111388Y130458D01*
X111525Y131500D01*
X111388Y132542D01*
X110986Y133512D01*
X110346Y134346D01*
X109512Y134986D01*
X108542Y135388D01*
X107500Y135525D01*
D02*
G37*
G36*
X121560Y131000D02*
X118000D01*
Y127440D01*
X118568Y127515D01*
X119563Y127927D01*
X120417Y128583D01*
X121073Y129437D01*
X121485Y130432D01*
X121560Y131000D01*
D02*
G37*
G36*
X117000D02*
X113440D01*
X113515Y130432D01*
X113927Y129437D01*
X114583Y128583D01*
X115437Y127927D01*
X116432Y127515D01*
X117000Y127440D01*
Y131000D01*
D02*
G37*
G36*
X189000Y131203D02*
X188041Y131077D01*
X187148Y130707D01*
X186381Y130119D01*
X185793Y129352D01*
X185423Y128458D01*
X185297Y127500D01*
X185423Y126541D01*
X185793Y125648D01*
X186381Y124881D01*
X187148Y124293D01*
X188041Y123923D01*
X189000Y123797D01*
X189959Y123923D01*
X190852Y124293D01*
X191619Y124881D01*
X192207Y125648D01*
X192577Y126541D01*
X192703Y127500D01*
X192577Y128458D01*
X192207Y129352D01*
X191619Y130119D01*
X190852Y130707D01*
X189959Y131077D01*
X189000Y131203D01*
D02*
G37*
G36*
X166754Y127000D02*
X163516D01*
Y123762D01*
X164000Y123825D01*
X164918Y124206D01*
X165706Y124810D01*
X166310Y125598D01*
X166690Y126515D01*
X166754Y127000D01*
D02*
G37*
G36*
X162516D02*
X159277D01*
X159341Y126515D01*
X159721Y125598D01*
X160326Y124810D01*
X161114Y124206D01*
X162031Y123825D01*
X162516Y123762D01*
Y127000D01*
D02*
G37*
G36*
X118940Y125306D02*
Y123000D01*
X121246D01*
X121013Y123563D01*
X120357Y124417D01*
X119503Y125073D01*
X118940Y125306D01*
D02*
G37*
G36*
X115940D02*
X115377Y125073D01*
X114523Y124417D01*
X113867Y123563D01*
X113634Y123000D01*
X115940D01*
Y125306D01*
D02*
G37*
G36*
X173516Y126238D02*
Y123000D01*
X176754D01*
X176690Y123485D01*
X176310Y124402D01*
X175706Y125190D01*
X174918Y125794D01*
X174000Y126175D01*
X173516Y126238D01*
D02*
G37*
G36*
X172516D02*
X172031Y126175D01*
X171114Y125794D01*
X170326Y125190D01*
X169721Y124402D01*
X169341Y123485D01*
X169277Y123000D01*
X172516D01*
Y126238D01*
D02*
G37*
G36*
X199000Y126203D02*
X198041Y126077D01*
X197148Y125707D01*
X196381Y125119D01*
X195793Y124352D01*
X195423Y123459D01*
X195297Y122500D01*
X195423Y121542D01*
X195793Y120648D01*
X196381Y119881D01*
X197148Y119293D01*
X198041Y118923D01*
X199000Y118797D01*
X199959Y118923D01*
X200852Y119293D01*
X201619Y119881D01*
X202207Y120648D01*
X202577Y121542D01*
X202703Y122500D01*
X202577Y123459D01*
X202207Y124352D01*
X201619Y125119D01*
X200852Y125707D01*
X199959Y126077D01*
X199000Y126203D01*
D02*
G37*
G36*
X176754Y122000D02*
X173516D01*
Y118762D01*
X174000Y118825D01*
X174918Y119205D01*
X175706Y119810D01*
X176310Y120598D01*
X176690Y121515D01*
X176754Y122000D01*
D02*
G37*
G36*
X172516D02*
X169277D01*
X169341Y121515D01*
X169721Y120598D01*
X170326Y119810D01*
X171114Y119205D01*
X172031Y118825D01*
X172516Y118762D01*
Y122000D01*
D02*
G37*
G36*
X121246Y120000D02*
X118940D01*
Y117694D01*
X119503Y117927D01*
X120357Y118583D01*
X121013Y119437D01*
X121246Y120000D01*
D02*
G37*
G36*
X115940D02*
X113634D01*
X113867Y119437D01*
X114523Y118583D01*
X115377Y117927D01*
X115940Y117694D01*
Y120000D01*
D02*
G37*
G36*
X111431Y125491D02*
X103449D01*
Y117509D01*
X111431D01*
Y125491D01*
D02*
G37*
G36*
X118940Y115306D02*
Y113000D01*
X121246D01*
X121013Y113563D01*
X120357Y114417D01*
X119503Y115073D01*
X118940Y115306D01*
D02*
G37*
G36*
X115940D02*
X115377Y115073D01*
X114523Y114417D01*
X113867Y113563D01*
X113634Y113000D01*
X115940D01*
Y115306D01*
D02*
G37*
G36*
X224000Y124833D02*
X222569Y124692D01*
X221194Y124275D01*
X219926Y123597D01*
X218815Y122685D01*
X217903Y121574D01*
X217225Y120306D01*
X216808Y118931D01*
X216667Y117500D01*
X216808Y116069D01*
X217225Y114694D01*
X217903Y113426D01*
X218815Y112315D01*
X219926Y111403D01*
X221194Y110725D01*
X222569Y110308D01*
X224000Y110167D01*
X225431Y110308D01*
X226806Y110725D01*
X228074Y111403D01*
X229185Y112315D01*
X230097Y113426D01*
X230775Y114694D01*
X231192Y116069D01*
X231333Y117500D01*
X231192Y118931D01*
X230775Y120306D01*
X230097Y121574D01*
X229185Y122685D01*
X228074Y123597D01*
X226806Y124275D01*
X225431Y124692D01*
X224000Y124833D01*
D02*
G37*
G36*
X121246Y110000D02*
X118940D01*
Y107694D01*
X119503Y107927D01*
X120357Y108583D01*
X121013Y109437D01*
X121246Y110000D01*
D02*
G37*
G36*
X115940D02*
X113634D01*
X113867Y109437D01*
X114523Y108583D01*
X115377Y107927D01*
X115940Y107694D01*
Y110000D01*
D02*
G37*
G36*
X111431Y115491D02*
X103449D01*
Y107509D01*
X111431D01*
Y115491D01*
D02*
G37*
G36*
X119000Y105306D02*
Y103000D01*
X121306D01*
X121073Y103563D01*
X120417Y104417D01*
X119563Y105073D01*
X119000Y105306D01*
D02*
G37*
G36*
X116000D02*
X115437Y105073D01*
X114583Y104417D01*
X113927Y103563D01*
X113694Y103000D01*
X116000D01*
Y105306D01*
D02*
G37*
G36*
X121306Y100000D02*
X119000D01*
Y97694D01*
X119563Y97927D01*
X120417Y98583D01*
X121073Y99437D01*
X121306Y100000D01*
D02*
G37*
G36*
X116000D02*
X113694D01*
X113927Y99437D01*
X114583Y98583D01*
X115437Y97927D01*
X116000Y97694D01*
Y100000D01*
D02*
G37*
G36*
X111491Y105491D02*
X103509D01*
Y97509D01*
X111491D01*
Y105491D01*
D02*
G37*
G36*
X130500Y100447D02*
X129564Y100261D01*
X128770Y99730D01*
X128239Y98936D01*
X128053Y98000D01*
X128239Y97064D01*
X128770Y96270D01*
X129564Y95739D01*
X130500Y95553D01*
X131436Y95739D01*
X132230Y96270D01*
X132761Y97064D01*
X132947Y98000D01*
X132761Y98936D01*
X132230Y99730D01*
X131436Y100261D01*
X130500Y100447D01*
D02*
G37*
G36*
X153500Y94934D02*
X152482Y94800D01*
X151533Y94407D01*
X150718Y93782D01*
X150093Y92967D01*
X149700Y92018D01*
X149566Y91000D01*
X149700Y89982D01*
X150093Y89033D01*
X150718Y88218D01*
X151533Y87593D01*
X152482Y87200D01*
X153500Y87066D01*
X154518Y87200D01*
X155467Y87593D01*
X156281Y88218D01*
X156907Y89033D01*
X157300Y89982D01*
X157434Y91000D01*
X157300Y92018D01*
X156907Y92967D01*
X156281Y93782D01*
X155467Y94407D01*
X154518Y94800D01*
X153500Y94934D01*
D02*
G37*
G36*
X230913Y88465D02*
X226311D01*
Y85398D01*
X233709D01*
Y85669D01*
X233614Y86393D01*
X233334Y87067D01*
X232890Y87646D01*
X232311Y88090D01*
X231637Y88370D01*
X230913Y88465D01*
D02*
G37*
G36*
X223311D02*
X218709D01*
X217985Y88370D01*
X217311Y88090D01*
X216732Y87646D01*
X216288Y87067D01*
X216008Y86393D01*
X215913Y85669D01*
Y85398D01*
X223311D01*
Y88465D01*
D02*
G37*
G36*
X76402Y86045D02*
X75465Y85859D01*
X74671Y85329D01*
X74516Y85096D01*
X73313D01*
X73211Y85250D01*
X72417Y85780D01*
X71480Y85967D01*
X70544Y85780D01*
X69750Y85250D01*
X69577Y84991D01*
X68384D01*
X68211Y85250D01*
X67417Y85780D01*
X66480Y85967D01*
X65544Y85780D01*
X64750Y85250D01*
X64577Y84991D01*
X63384D01*
X63211Y85250D01*
X62417Y85780D01*
X61480Y85967D01*
X60544Y85780D01*
X59750Y85250D01*
X59577Y84991D01*
X58384D01*
X58211Y85250D01*
X57417Y85780D01*
X56480Y85967D01*
X55544Y85780D01*
X54750Y85250D01*
X54718Y85202D01*
X52520D01*
X51876Y85074D01*
X51330Y84709D01*
X36310Y69690D01*
X35946Y69144D01*
X35818Y68500D01*
Y65186D01*
X35458Y65037D01*
X34612Y64388D01*
X33963Y63542D01*
X33555Y62557D01*
X33415Y61500D01*
X33555Y60443D01*
X33963Y59458D01*
X34612Y58612D01*
X35458Y57963D01*
X36443Y57555D01*
X37500Y57415D01*
X38557Y57555D01*
X39542Y57963D01*
X40388Y58612D01*
X41037Y59458D01*
X41445Y60443D01*
X41585Y61500D01*
X41445Y62557D01*
X41037Y63542D01*
X40388Y64388D01*
X39542Y65037D01*
X39182Y65186D01*
Y67803D01*
X53216Y81837D01*
X54718D01*
X54750Y81789D01*
X55544Y81259D01*
X56480Y81073D01*
X57417Y81259D01*
X58211Y81789D01*
X59257Y81700D01*
X59798Y81140D01*
Y76177D01*
X48917Y65296D01*
X48557Y65445D01*
X47500Y65584D01*
X46443Y65445D01*
X45458Y65037D01*
X44612Y64388D01*
X43963Y63542D01*
X43555Y62557D01*
X43415Y61500D01*
X43555Y60443D01*
X43963Y59458D01*
X44612Y58612D01*
X45458Y57963D01*
X46443Y57555D01*
X47500Y57415D01*
X48557Y57555D01*
X49542Y57963D01*
X50388Y58612D01*
X51037Y59458D01*
X51445Y60443D01*
X51585Y61500D01*
X51445Y62557D01*
X51296Y62917D01*
X62670Y74291D01*
X62670Y74291D01*
X63035Y74836D01*
X63163Y75480D01*
Y81512D01*
X63796Y81752D01*
X64261Y81722D01*
X64818Y81148D01*
Y71197D01*
X58917Y65296D01*
X58557Y65445D01*
X57500Y65584D01*
X56443Y65445D01*
X55458Y65037D01*
X54612Y64388D01*
X53963Y63542D01*
X53555Y62557D01*
X53416Y61500D01*
X53555Y60443D01*
X53963Y59458D01*
X54612Y58612D01*
X55458Y57963D01*
X56443Y57555D01*
X57500Y57415D01*
X58557Y57555D01*
X59542Y57963D01*
X60388Y58612D01*
X61037Y59458D01*
X61445Y60443D01*
X61585Y61500D01*
X61445Y62557D01*
X61296Y62917D01*
X67690Y69310D01*
X68054Y69856D01*
X68182Y70500D01*
Y81398D01*
X69020Y81720D01*
X69257Y81700D01*
X69798Y81140D01*
Y66177D01*
X68917Y65296D01*
X68557Y65445D01*
X67500Y65584D01*
X66443Y65445D01*
X65458Y65037D01*
X64612Y64388D01*
X63963Y63542D01*
X63555Y62557D01*
X63415Y61500D01*
X63555Y60443D01*
X63963Y59458D01*
X64612Y58612D01*
X65458Y57963D01*
X66443Y57555D01*
X67500Y57415D01*
X68557Y57555D01*
X69542Y57963D01*
X70388Y58612D01*
X71037Y59458D01*
X71445Y60443D01*
X71584Y61500D01*
X71445Y62557D01*
X71296Y62917D01*
X72670Y64291D01*
X73035Y64837D01*
X73163Y65480D01*
X73163Y65480D01*
Y81757D01*
X73211Y81789D01*
X73366Y82022D01*
X74569D01*
X74671Y81868D01*
X75465Y81338D01*
X75818Y81268D01*
Y65186D01*
X75458Y65037D01*
X74612Y64388D01*
X73963Y63542D01*
X73555Y62557D01*
X73415Y61500D01*
X73555Y60443D01*
X73963Y59458D01*
X74612Y58612D01*
X75458Y57963D01*
X76443Y57555D01*
X77500Y57415D01*
X78557Y57555D01*
X79542Y57963D01*
X80388Y58612D01*
X81037Y59458D01*
X81445Y60443D01*
X81585Y61500D01*
X81445Y62557D01*
X81037Y63542D01*
X80388Y64388D01*
X79542Y65037D01*
X79182Y65186D01*
Y82094D01*
X79054Y82738D01*
X78764Y83173D01*
X78849Y83598D01*
X78662Y84535D01*
X78132Y85329D01*
X77338Y85859D01*
X76402Y86045D01*
D02*
G37*
G36*
X233709Y82398D02*
X226311D01*
Y79330D01*
X230913D01*
X231637Y79426D01*
X232311Y79705D01*
X232890Y80149D01*
X233334Y80728D01*
X233614Y81402D01*
X233709Y82126D01*
Y82398D01*
D02*
G37*
G36*
X223311D02*
X215913D01*
Y82126D01*
X216008Y81402D01*
X216288Y80728D01*
X216732Y80149D01*
X217311Y79705D01*
X217985Y79426D01*
X218709Y79330D01*
X223311D01*
Y82398D01*
D02*
G37*
G36*
X137059Y83388D02*
X136123Y83202D01*
X135329Y82671D01*
X134798Y81877D01*
X134612Y80941D01*
X134798Y80005D01*
X135329Y79211D01*
X136123Y78680D01*
X137059Y78494D01*
X137995Y78680D01*
X138789Y79211D01*
X139320Y80005D01*
X139506Y80941D01*
X139320Y81877D01*
X138789Y82671D01*
X137995Y83202D01*
X137059Y83388D01*
D02*
G37*
G36*
X110500Y81947D02*
X109564Y81761D01*
X108770Y81230D01*
X108239Y80436D01*
X108053Y79500D01*
X108239Y78564D01*
X108770Y77770D01*
X109564Y77239D01*
X110500Y77053D01*
X111436Y77239D01*
X112230Y77770D01*
X112761Y78564D01*
X112947Y79500D01*
X112761Y80436D01*
X112230Y81230D01*
X111436Y81761D01*
X110500Y81947D01*
D02*
G37*
G36*
X237606Y73898D02*
X237335D01*
Y66500D01*
X240402D01*
Y71102D01*
X240307Y71826D01*
X240027Y72500D01*
X239583Y73079D01*
X239004Y73523D01*
X238330Y73803D01*
X237606Y73898D01*
D02*
G37*
G36*
X234335D02*
X234063D01*
X233339Y73803D01*
X232665Y73523D01*
X232086Y73079D01*
X231642Y72500D01*
X231363Y71826D01*
X231267Y71102D01*
Y66500D01*
X234335D01*
Y73898D01*
D02*
G37*
G36*
X88000Y65620D02*
Y62000D01*
X91620D01*
X91543Y62583D01*
X91125Y63593D01*
X90460Y64460D01*
X89593Y65125D01*
X88583Y65543D01*
X88000Y65620D01*
D02*
G37*
G36*
X87000D02*
X86417Y65543D01*
X85407Y65125D01*
X84540Y64460D01*
X83875Y63593D01*
X83457Y62583D01*
X83380Y62000D01*
X87000D01*
Y65620D01*
D02*
G37*
G36*
X28000D02*
Y62000D01*
X31620D01*
X31543Y62583D01*
X31125Y63593D01*
X30459Y64460D01*
X29593Y65125D01*
X28583Y65543D01*
X28000Y65620D01*
D02*
G37*
G36*
X27000D02*
X26417Y65543D01*
X25407Y65125D01*
X24541Y64460D01*
X23875Y63593D01*
X23457Y62583D01*
X23380Y62000D01*
X27000D01*
Y65620D01*
D02*
G37*
G36*
X17500Y65584D02*
X16443Y65445D01*
X15458Y65037D01*
X14612Y64388D01*
X13963Y63542D01*
X13555Y62557D01*
X13416Y61500D01*
X13555Y60443D01*
X13963Y59458D01*
X14612Y58612D01*
X15458Y57963D01*
X16443Y57555D01*
X17500Y57415D01*
X18557Y57555D01*
X19542Y57963D01*
X20388Y58612D01*
X21037Y59458D01*
X21445Y60443D01*
X21585Y61500D01*
X21445Y62557D01*
X21037Y63542D01*
X20388Y64388D01*
X19542Y65037D01*
X18557Y65445D01*
X17500Y65584D01*
D02*
G37*
G36*
X9075Y65598D02*
X5925D01*
X4960Y65406D01*
X4141Y64859D01*
X3594Y64040D01*
X3402Y63075D01*
Y59925D01*
X3594Y58960D01*
X4141Y58141D01*
X4960Y57594D01*
X5925Y57402D01*
X9075D01*
X10040Y57594D01*
X10859Y58141D01*
X11406Y58960D01*
X11598Y59925D01*
Y63075D01*
X11406Y64040D01*
X10859Y64859D01*
X10040Y65406D01*
X9075Y65598D01*
D02*
G37*
G36*
X91620Y61000D02*
X88000D01*
Y57380D01*
X88583Y57457D01*
X89593Y57875D01*
X90460Y58540D01*
X91125Y59407D01*
X91543Y60417D01*
X91620Y61000D01*
D02*
G37*
G36*
X87000D02*
X83380D01*
X83457Y60417D01*
X83875Y59407D01*
X84540Y58540D01*
X85407Y57875D01*
X86417Y57457D01*
X87000Y57380D01*
Y61000D01*
D02*
G37*
G36*
X31620D02*
X28000D01*
Y57380D01*
X28583Y57457D01*
X29593Y57875D01*
X30459Y58540D01*
X31125Y59407D01*
X31543Y60417D01*
X31620Y61000D01*
D02*
G37*
G36*
X27000D02*
X23380D01*
X23457Y60417D01*
X23875Y59407D01*
X24541Y58540D01*
X25407Y57875D01*
X26417Y57457D01*
X27000Y57380D01*
Y61000D01*
D02*
G37*
G36*
X214772Y73797D02*
X211228D01*
X210531Y73705D01*
X209881Y73436D01*
X209323Y73008D01*
X208895Y72450D01*
X208626Y71800D01*
X208534Y71102D01*
Y58898D01*
X208626Y58200D01*
X208895Y57550D01*
X209323Y56992D01*
X209881Y56564D01*
X210531Y56295D01*
X211228Y56203D01*
X214772D01*
X215469Y56295D01*
X216119Y56564D01*
X216677Y56992D01*
X217105Y57550D01*
X217374Y58200D01*
X217466Y58898D01*
Y71102D01*
X217374Y71800D01*
X217105Y72450D01*
X216677Y73008D01*
X216119Y73436D01*
X215469Y73705D01*
X214772Y73797D01*
D02*
G37*
G36*
X240402Y63500D02*
X237335D01*
Y56102D01*
X237606D01*
X238330Y56197D01*
X239004Y56477D01*
X239583Y56921D01*
X240027Y57500D01*
X240307Y58174D01*
X240402Y58898D01*
Y63500D01*
D02*
G37*
G36*
X234335D02*
X231267D01*
Y58898D01*
X231363Y58174D01*
X231642Y57500D01*
X232086Y56921D01*
X232665Y56477D01*
X233339Y56197D01*
X234063Y56102D01*
X234335D01*
Y63500D01*
D02*
G37*
G36*
X12500Y46447D02*
X11564Y46261D01*
X10770Y45730D01*
X10239Y44936D01*
X10053Y44000D01*
X10239Y43064D01*
X10770Y42270D01*
X11564Y41739D01*
X12500Y41553D01*
X13436Y41739D01*
X14230Y42270D01*
X14761Y43064D01*
X14947Y44000D01*
X14761Y44936D01*
X14230Y45730D01*
X13436Y46261D01*
X12500Y46447D01*
D02*
G37*
G36*
X56500Y45447D02*
X55564Y45261D01*
X54770Y44730D01*
X54239Y43936D01*
X54053Y43000D01*
X54239Y42064D01*
X54770Y41270D01*
X55564Y40739D01*
X56500Y40553D01*
X57436Y40739D01*
X58230Y41270D01*
X58761Y42064D01*
X58947Y43000D01*
X58761Y43936D01*
X58230Y44730D01*
X57436Y45261D01*
X56500Y45447D01*
D02*
G37*
G36*
X231500Y41806D02*
Y39500D01*
X233806D01*
X233573Y40063D01*
X232917Y40917D01*
X232063Y41573D01*
X231500Y41806D01*
D02*
G37*
G36*
X228500D02*
X227937Y41573D01*
X227083Y40917D01*
X226427Y40063D01*
X226194Y39500D01*
X228500D01*
Y41806D01*
D02*
G37*
G36*
X103000Y40947D02*
X102064Y40761D01*
X101270Y40230D01*
X100739Y39436D01*
X100553Y38500D01*
X100739Y37564D01*
X101270Y36770D01*
X102064Y36239D01*
X103000Y36053D01*
X103936Y36239D01*
X104730Y36770D01*
X105261Y37564D01*
X105447Y38500D01*
X105261Y39436D01*
X104730Y40230D01*
X103936Y40761D01*
X103000Y40947D01*
D02*
G37*
G36*
X233806Y36500D02*
X231500D01*
Y34194D01*
X232063Y34427D01*
X232917Y35083D01*
X233573Y35937D01*
X233806Y36500D01*
D02*
G37*
G36*
X228500D02*
X226194D01*
X226427Y35937D01*
X227083Y35083D01*
X227937Y34427D01*
X228500Y34194D01*
Y36500D01*
D02*
G37*
G36*
X223991Y41991D02*
X216009D01*
Y34009D01*
X223991D01*
Y41991D01*
D02*
G37*
G36*
X9398Y38345D02*
X8461Y38158D01*
X7667Y37628D01*
X7137Y36834D01*
X6951Y35898D01*
X7137Y34961D01*
X7667Y34167D01*
X8461Y33637D01*
X9398Y33451D01*
X10334Y33637D01*
X11128Y34167D01*
X11658Y34961D01*
X11845Y35898D01*
X11658Y36834D01*
X11128Y37628D01*
X10334Y38158D01*
X9398Y38345D01*
D02*
G37*
G36*
X169000Y28969D02*
Y25500D01*
X172469D01*
X172397Y26044D01*
X171994Y27017D01*
X171353Y27853D01*
X170517Y28494D01*
X169544Y28897D01*
X169000Y28969D01*
D02*
G37*
G36*
X168000D02*
X167456Y28897D01*
X166483Y28494D01*
X165647Y27853D01*
X165006Y27017D01*
X164603Y26044D01*
X164531Y25500D01*
X168000D01*
Y28969D01*
D02*
G37*
G36*
X178500Y28934D02*
X177482Y28800D01*
X176533Y28407D01*
X175718Y27782D01*
X175093Y26967D01*
X174700Y26018D01*
X174566Y25000D01*
X174700Y23982D01*
X175093Y23033D01*
X175718Y22219D01*
X176533Y21593D01*
X177482Y21200D01*
X178500Y21066D01*
X179518Y21200D01*
X180467Y21593D01*
X181281Y22219D01*
X181907Y23033D01*
X182300Y23982D01*
X182434Y25000D01*
X182300Y26018D01*
X181907Y26967D01*
X181281Y27782D01*
X180467Y28407D01*
X179518Y28800D01*
X178500Y28934D01*
D02*
G37*
G36*
X158500D02*
X157482Y28800D01*
X156533Y28407D01*
X155719Y27782D01*
X155093Y26967D01*
X154700Y26018D01*
X154566Y25000D01*
X154700Y23982D01*
X155093Y23033D01*
X155719Y22219D01*
X156533Y21593D01*
X157482Y21200D01*
X158500Y21066D01*
X159518Y21200D01*
X160467Y21593D01*
X161282Y22219D01*
X161907Y23033D01*
X162300Y23982D01*
X162434Y25000D01*
X162300Y26018D01*
X161907Y26967D01*
X161282Y27782D01*
X160467Y28407D01*
X159518Y28800D01*
X158500Y28934D01*
D02*
G37*
G36*
X172469Y24500D02*
X169000D01*
Y21031D01*
X169544Y21103D01*
X170517Y21506D01*
X171353Y22147D01*
X171994Y22983D01*
X172397Y23956D01*
X172469Y24500D01*
D02*
G37*
G36*
X168000D02*
X164531D01*
X164603Y23956D01*
X165006Y22983D01*
X165647Y22147D01*
X166483Y21506D01*
X167456Y21103D01*
X168000Y21031D01*
Y24500D01*
D02*
G37*
G36*
X73008Y10598D02*
X72259Y10499D01*
X71561Y10210D01*
X70962Y9751D01*
X70502Y9151D01*
X70213Y8454D01*
X70114Y7705D01*
X70213Y6956D01*
X70502Y6258D01*
X70962Y5659D01*
X71561Y5199D01*
X72259Y4910D01*
X73008Y4812D01*
X73757Y4910D01*
X74454Y5199D01*
X75054Y5659D01*
X75513Y6258D01*
X75802Y6956D01*
X75901Y7705D01*
X75802Y8454D01*
X75513Y9151D01*
X75054Y9751D01*
X74454Y10210D01*
X73757Y10499D01*
X73008Y10598D01*
D02*
G37*
G36*
X41512D02*
X40763Y10499D01*
X40065Y10210D01*
X39466Y9751D01*
X39006Y9151D01*
X38717Y8454D01*
X38618Y7705D01*
X38717Y6956D01*
X39006Y6258D01*
X39466Y5659D01*
X40065Y5199D01*
X40763Y4910D01*
X41512Y4812D01*
X42261Y4910D01*
X42958Y5199D01*
X43558Y5659D01*
X44017Y6258D01*
X44306Y6956D01*
X44405Y7705D01*
X44306Y8454D01*
X44017Y9151D01*
X43558Y9751D01*
X42958Y10210D01*
X42261Y10499D01*
X41512Y10598D01*
D02*
G37*
G36*
X228346Y28498D02*
X226352Y28341D01*
X224406Y27874D01*
X222558Y27109D01*
X220852Y26063D01*
X219331Y24764D01*
X218031Y23243D01*
X216986Y21536D01*
X216220Y19688D01*
X215753Y17743D01*
X215596Y15748D01*
X215753Y13753D01*
X216220Y11808D01*
X216986Y9960D01*
X218031Y8254D01*
X219331Y6732D01*
X220852Y5433D01*
X222558Y4387D01*
X224406Y3622D01*
X226352Y3155D01*
X228346Y2998D01*
X230341Y3155D01*
X232287Y3622D01*
X234135Y4387D01*
X235841Y5433D01*
X237362Y6732D01*
X238662Y8254D01*
X239707Y9960D01*
X240473Y11808D01*
X240940Y13753D01*
X241097Y15748D01*
X240940Y17743D01*
X240473Y19688D01*
X239707Y21536D01*
X238662Y23243D01*
X237362Y24764D01*
X235841Y26063D01*
X234135Y27109D01*
X232287Y27874D01*
X230341Y28341D01*
X228346Y28498D01*
D02*
G37*
%LPD*%
D72*
X117500Y101500D02*
D03*
X117440Y111500D02*
D03*
X117500Y131500D02*
D03*
X107500D02*
D03*
X117440Y121500D02*
D03*
X230000Y38000D02*
D03*
D73*
X107500Y101500D02*
D03*
X107440Y111500D02*
D03*
X97500Y131500D02*
D03*
X107440Y121500D02*
D03*
X220000Y38000D02*
D03*
D82*
X41512Y7705D02*
D03*
X73008D02*
D03*
D83*
X83500Y155500D02*
X99963Y171963D01*
X75949Y157449D02*
X77898Y155500D01*
X83500D01*
X76402Y83192D02*
X77500Y82094D01*
X76402Y83192D02*
Y83598D01*
X77500Y61500D02*
Y82094D01*
X37500Y61500D02*
Y68500D01*
X52520Y83520D02*
X56480D01*
X37500Y68500D02*
X52520Y83520D01*
X83130Y118630D02*
X92500Y109259D01*
Y80000D02*
Y109259D01*
Y80000D02*
X127500Y45000D01*
X89500Y79000D02*
X127400Y41100D01*
X89500Y79000D02*
Y107500D01*
X83500Y113500D02*
X89500Y107500D01*
X41002Y83002D02*
X110000Y152000D01*
X18883Y83002D02*
X41002D01*
X110000Y152000D02*
Y179500D01*
X127400Y41100D02*
X143500D01*
X127500Y45000D02*
X143500D01*
X99963Y197463D02*
X100000Y197500D01*
X99963Y171963D02*
Y197463D01*
X71480Y65480D02*
Y83520D01*
X67500Y61500D02*
X71480Y65480D01*
X57500Y61500D02*
X66500Y70500D01*
Y83500D01*
X66480Y83520D02*
X66500Y83500D01*
X47500Y61500D02*
X61480Y75480D01*
Y83520D01*
X62500Y166500D02*
X67500Y171500D01*
X22500Y163000D02*
X26000Y166500D01*
X62500D01*
X27500Y163000D02*
X69000D01*
X77500Y171500D01*
D87*
X87500Y61500D02*
D03*
X67500D02*
D03*
X47500D02*
D03*
X27500D02*
D03*
X37500D02*
D03*
X57500D02*
D03*
X17500D02*
D03*
X77500D02*
D03*
X57500Y171500D02*
D03*
X37500D02*
D03*
X17500D02*
D03*
X27500D02*
D03*
X47500D02*
D03*
X67500D02*
D03*
X77500D02*
D03*
X87500D02*
D03*
D88*
X7500Y61500D02*
D03*
Y171500D02*
D03*
D89*
X15748Y192913D02*
D03*
X228346Y15748D02*
D03*
Y192913D02*
D03*
D90*
X189000Y157500D02*
D03*
X199000Y152500D02*
D03*
X189000Y147500D02*
D03*
X199000Y142500D02*
D03*
X189000Y137500D02*
D03*
Y127500D02*
D03*
X173016Y122500D02*
D03*
X163016Y127500D02*
D03*
X173016Y132500D02*
D03*
X163016Y137500D02*
D03*
X173016Y142500D02*
D03*
X163016Y147500D02*
D03*
X173016Y152500D02*
D03*
X199000Y132500D02*
D03*
Y122500D02*
D03*
X163016Y157500D02*
D03*
D91*
X224000Y162500D02*
D03*
Y117500D02*
D03*
D92*
X178500Y25000D02*
D03*
X158500D02*
D03*
X168500D02*
D03*
X153500Y91000D02*
D03*
D93*
X213000Y65000D02*
D03*
X235835D02*
D03*
D94*
X224811Y83898D02*
D03*
D95*
X85000Y80500D02*
D03*
X81000Y159000D02*
D03*
X105000Y162000D02*
D03*
X58500Y80000D02*
D03*
X96500Y86000D02*
D03*
X101852Y100000D02*
D03*
X58500Y94500D02*
D03*
X105500Y143000D02*
D03*
X71517Y122983D02*
D03*
X103500Y156000D02*
D03*
X70500Y107000D02*
D03*
X42000Y94500D02*
D03*
X70500D02*
D03*
X197500Y23500D02*
D03*
X36000Y45000D02*
D03*
X112500Y127000D02*
D03*
X155500Y147500D02*
D03*
X199000Y107500D02*
D03*
X164000Y49000D02*
D03*
X109000Y39500D02*
D03*
X160000Y83500D02*
D03*
X199000Y170000D02*
D03*
X178500Y182000D02*
D03*
X82500Y168500D02*
D03*
X104000Y170500D02*
D03*
X129000Y178000D02*
D03*
X142000Y168000D02*
D03*
X159500Y164500D02*
D03*
X145500Y184500D02*
D03*
X82000Y185000D02*
D03*
X43000Y186000D02*
D03*
X4000Y180000D02*
D03*
X29000Y204500D02*
D03*
X54000D02*
D03*
X76500D02*
D03*
X101000D02*
D03*
X139000D02*
D03*
X163000D02*
D03*
X187500D02*
D03*
X216500D02*
D03*
X240000Y180000D02*
D03*
Y154500D02*
D03*
X208000Y139500D02*
D03*
X240000Y125000D02*
D03*
X208000Y105000D02*
D03*
X240000Y94000D02*
D03*
X170500Y64500D02*
D03*
X155000D02*
D03*
X175000Y75000D02*
D03*
X193000Y88500D02*
D03*
X187000Y116500D02*
D03*
X171000Y98000D02*
D03*
X156000Y118000D02*
D03*
X140500Y141000D02*
D03*
X131000Y162500D02*
D03*
X125500Y140000D02*
D03*
X136500Y122000D02*
D03*
X128000Y108500D02*
D03*
X147000Y97000D02*
D03*
X104000Y75000D02*
D03*
X115500Y85500D02*
D03*
X133500D02*
D03*
X124500Y80000D02*
D03*
X144500Y70500D02*
D03*
X132000Y71500D02*
D03*
X139500Y57500D02*
D03*
X128000Y51000D02*
D03*
X118500Y61500D02*
D03*
X122500Y34000D02*
D03*
X145500Y33500D02*
D03*
X168500Y34000D02*
D03*
X178000Y47000D02*
D03*
X189500D02*
D03*
X205000D02*
D03*
X224500Y75000D02*
D03*
X240000Y52500D02*
D03*
Y27000D02*
D03*
X217500Y4000D02*
D03*
X208500Y23500D02*
D03*
X191000Y4000D02*
D03*
X171000Y16500D02*
D03*
X156000Y4000D02*
D03*
X136500Y11000D02*
D03*
X97000Y14500D02*
D03*
X114500Y4000D02*
D03*
X83000D02*
D03*
X48500D02*
D03*
X96000Y28000D02*
D03*
X95500Y44500D02*
D03*
X94500Y161500D02*
D03*
X88000Y154000D02*
D03*
X6500Y164000D02*
D03*
X17500Y137000D02*
D03*
Y95000D02*
D03*
X52500Y136500D02*
D03*
X30500Y127500D02*
D03*
X24500D02*
D03*
X17500Y120500D02*
D03*
Y114500D02*
D03*
X24500Y108000D02*
D03*
X30500D02*
D03*
X38000Y114500D02*
D03*
Y121000D02*
D03*
X37500Y152000D02*
D03*
X4000Y151500D02*
D03*
X70500Y152000D02*
D03*
X4000Y94500D02*
D03*
Y66500D02*
D03*
X18500Y78000D02*
D03*
X4000Y25000D02*
D03*
Y4000D02*
D03*
X16000Y15500D02*
D03*
X23500Y4000D02*
D03*
X36500Y12000D02*
D03*
X63500Y12500D02*
D03*
X75500Y28000D02*
D03*
Y45500D02*
D03*
X100500Y60000D02*
D03*
X85000Y69000D02*
D03*
X80000Y91000D02*
D03*
X74500Y80000D02*
D03*
X48500Y44500D02*
D03*
X45000Y34500D02*
D03*
D96*
X83130Y118630D02*
D03*
X104440Y152060D02*
D03*
X12500Y44000D02*
D03*
X9398Y35898D02*
D03*
X56500Y43000D02*
D03*
X83500Y113500D02*
D03*
X18883Y83002D02*
D03*
X100000Y197500D02*
D03*
X143500Y41100D02*
D03*
X110500Y79500D02*
D03*
X76402Y83598D02*
D03*
X71480Y83520D02*
D03*
X66480D02*
D03*
X61480D02*
D03*
X56480D02*
D03*
X27500Y163000D02*
D03*
X22500D02*
D03*
X143500Y45000D02*
D03*
X75949Y157449D02*
D03*
X130500Y98000D02*
D03*
X110000Y179500D02*
D03*
X128000Y200500D02*
D03*
X137059Y80941D02*
D03*
X103000Y38500D02*
D03*
M02*
