M48
;Layer_Color=9474304
;FILE_FORMAT=2:4
INCH,TZ
;TYPE=PLATED
T01F00S00C0.0100
T02F00S00C0.0150
T03F00S00C0.0300
T05F00S00C0.0354
T06F00S00C0.0402
T07F00S00C0.0433
T08F00S00C0.1260
;TYPE=NON_PLATED
T09F00S00C0.0394
T10F00S00C0.1280
%
T01
X400Y400
X2350
X1600Y1550
X400Y2500
Y6650
X1850Y7800
X1750Y9500
X400Y9450
X1750Y11450
Y12050
X2450Y12750
X3050
X3800Y12100
Y11450
X3050Y10800
X2450
X4200Y9450
X5850
X7050
Y10700
X7152Y12298
X7050Y15200
X8800Y15400
X10350Y15600
X10550Y14300
X11250Y12700
X12550Y14000
X14050Y14100
X15550Y14750
X15600Y11800
X13650Y12200
X12800Y10850
X13350Y8550
X12450Y8000
X11550Y8550
X9650Y8600
X8500Y8050
X7450Y8000
X5850
X8000Y9100
X8500Y6900
X10050Y6000
X10400Y7500
X10185Y10000
X14700Y9700
X14450Y7050
X13200Y7150
X13950Y5750
X12800Y5100
X11850Y6150
X10900Y3950
X9550Y4450
X9600Y2800
X9700Y1450
X8300Y400
X6350Y1250
X4850Y400
X3650Y1200
X4500Y3450
X4850Y4450
X3600Y4500
X7550Y4550
Y2800
X12250Y3400
X14550Y3350
X13650Y1100
X15600Y400
X11450
X15500Y6450
X5250Y13650
X3750Y15200
X400Y15150
X1750Y13700
X18700Y11650
X19900Y10750
X20800Y10500
X19300Y8850
X17500Y7500
X17050Y6450
X16400Y4900
X17800Y4700
X18950
X20500
X20850Y2350
X19750
X19100Y400
X21750
X24000Y2700
Y5250
X22450Y7500
X24000Y9400
Y12500
Y15450
X20800Y13950
X17100Y9800
X16000Y8350
X16850Y3400
X17100Y1650
X15950Y16450
X17850Y18200
X18750Y20450
X16300
X21650
X24000Y18000
X19900Y17000
X14200Y16800
X13100Y16250
X12900Y17800
X14550Y18450
X13900Y20450
X10100
X7650
X5400
X2900
X4300Y18600
X8200Y18500
X8250Y16850
X8100Y15900
X9450Y16150
X10500Y16200
X10400Y17050
X650Y16400
X400Y18000
T02
X940Y3590
X1250Y4400
X5650Y4300
X5648Y8352
X6148
X6648
X7148
X7640Y8360
X8350Y11350
X8313Y11863
X10444Y15206
X11050Y7950
X13706Y8094
X13050Y9800
X14350Y4500
Y4110
X10300Y3850
X1888Y8300
X2250Y16300
X2750
X7595Y15745
X11000Y17950
X10000Y19750
X12800Y20050
T03
X15350Y9100
X15850Y2500
X16850
X17850
T05
X16302Y12750
Y13750
Y14750
X17302Y14250
Y13250
Y12250
X18900Y12750
Y13750
Y14750
X19900Y15250
Y14250
Y13250
Y12250
X17302Y15250
X16302Y15750
X18900
T06
X10750Y10150
X11750
X11744Y11150
X10744
Y12150
X11744
X11750Y13150
X10750
X9750
X22000Y3800
X23000
T07
X750Y6150
X1750
X2750
X3750
X4750
X5750
X6750
X7750
X8750
Y17150
X7750
X6750
X5750
X4750
X3750
X2750
X1750
X750
T08
X22835Y1575
Y19291
X1575
T09
X4151Y770
X7301
T10
X22400Y11750
Y16250
M30
